<?xml version="1.0" encoding="utf-8"?>
<!-- Generator: Adobe Illustrator 17.1.0, SVG Export Plug-In . SVG Version: 6.00 Build 0)  -->
<!DOCTYPE svg PUBLIC "-//W3C//DTD SVG 1.1//EN" "http://www.w3.org/Graphics/SVG/1.1/DTD/svg11.dtd">
<svg version="1.1" xmlns="http://www.w3.org/2000/svg" xmlns:xlink="http://www.w3.org/1999/xlink" x="0px" y="0px"
	 viewBox="0 0 110 50" enable-background="new 0 0 110 50" xml:space="preserve">
<g id="Art">
	<g>
		<rect x="1.487" y="1.71" fill="#E11C24" width="21.781" height="21.207"/>
		<path fill="#FFFFFF" d="M16.196,36.017h-6.173V10.757h8.256c3.661,0,6.249,0.631,7.763,1.893c1.969,1.641,2.954,3.876,2.954,6.703
			c0,2.727-0.884,4.911-2.651,6.552c-1.565,1.464-4.027,2.196-7.385,2.196h-2.765V36.017 M16.196,16.438v5.946h2.613
			c2.676,0,4.015-0.985,4.015-2.954c0-1.994-1.427-2.992-4.279-2.992H16.196z"/>
		<path fill="#FFFFFF" d="M36.55,36.66c-2.954,0-5.403-0.946-7.347-2.84c-1.944-1.893-2.916-4.279-2.916-7.157
			c0-2.954,0.966-5.397,2.897-7.328c1.931-1.932,4.374-2.897,7.328-2.897c2.928,0,5.365,0.959,7.309,2.878
			c1.944,1.919,2.916,4.33,2.916,7.234c0,2.903-0.966,5.314-2.897,7.233C41.909,35.702,39.479,36.66,36.55,36.66 M36.55,21.74
			c-1.288,0-2.374,0.461-3.257,1.382c-0.884,0.922-1.326,2.052-1.326,3.39c0,1.389,0.436,2.543,1.306,3.465
			c0.871,0.922,1.963,1.382,3.276,1.382c1.288,0,2.361-0.461,3.219-1.382c0.858-0.922,1.288-2.064,1.288-3.427
			c0-1.338-0.436-2.474-1.306-3.409C38.879,22.207,37.813,21.74,36.55,21.74z"/>
		<polyline fill="#FFFFFF" points="49.672,36.017 43.878,17.081 49.71,17.081 52.588,28.859 55.731,17.081 60.541,17.081 
			63.684,28.859 66.563,17.081 72.394,17.081 66.6,36.017 61.336,36.017 58.117,23.784 54.936,36.017 49.672,36.017 		"/>
		<path fill="#FFFFFF" d="M82.808,30.374l0.265-0.265h5.756c-0.884,2.045-2.139,3.648-3.768,4.809
			c-1.629,1.161-3.44,1.742-5.434,1.742c-2.777,0-5.131-0.978-7.063-2.935c-1.932-1.957-2.897-4.336-2.897-7.138
			c0-2.828,0.959-5.226,2.878-7.196c1.919-1.969,4.241-2.954,6.968-2.954c2.827,0,5.201,0.991,7.12,2.973
			c1.919,1.982,2.878,4.437,2.878,7.366c0,0.455-0.051,0.972-0.151,1.553H75.159c0.126,1.06,0.574,1.913,1.344,2.556
			c0.77,0.644,1.71,0.966,2.821,0.966C80.587,31.851,81.748,31.359,82.808,30.374 M75.31,24.542h8.521
			c-0.202-0.985-0.694-1.78-1.477-2.386c-0.783-0.606-1.717-0.909-2.802-0.909C77.204,21.247,75.79,22.346,75.31,24.542z"/>
		<rect x="90.496" y="10.757" fill="#FFFFFF" width="5.681" height="25.259"/>
		<rect x="97.767" y="10.757" fill="#FFFFFF" width="5.681" height="25.259"/>
		<path fill="#FFFFFF" d="M105.673,34.609c0-0.391,0.138-0.725,0.415-1.002c0.277-0.278,0.613-0.416,1.009-0.416
			c0.39,0,0.724,0.139,1.001,0.416c0.277,0.277,0.416,0.611,0.416,1.002c0,0.396-0.139,0.732-0.416,1.01
			c-0.277,0.277-0.611,0.416-1.001,0.416c-0.395,0-0.731-0.139-1.009-0.416C105.811,35.341,105.673,35.005,105.673,34.609
			 M108.286,34.609c0-0.327-0.117-0.607-0.35-0.841c-0.233-0.234-0.513-0.351-0.839-0.351c-0.331,0-0.613,0.117-0.846,0.351
			c-0.234,0.234-0.35,0.514-0.35,0.841c0,0.332,0.117,0.614,0.35,0.848c0.233,0.234,0.515,0.351,0.846,0.351
			c0.326,0,0.606-0.117,0.839-0.351C108.169,35.223,108.286,34.941,108.286,34.609z M107.275,34.817l0.436,0.546h-0.355
			l-0.471-0.617v0.617h-0.279v-1.501h0.505c0.386,0,0.579,0.164,0.579,0.491C107.689,34.622,107.551,34.776,107.275,34.817z
			 M106.885,34.113v0.497h0.13c0.264,0,0.396-0.086,0.396-0.258c0-0.159-0.105-0.238-0.314-0.238H106.885z"/>
	</g>
</g>
<g id="Text">
	<g>
		<path fill="#FFFFFF" d="M10.106,41.964h0.54v2.378h2.793v-2.378h0.54v5.397h-0.54v-2.531h-2.793v2.531h-0.54V41.964z"/>
		<path fill="#FFFFFF" d="M20.697,41.869c1.517,0,2.859,1.204,2.859,2.793s-1.349,2.793-2.859,2.793
			c-1.532,0-2.852-1.247-2.852-2.764C17.845,42.992,19.26,41.869,20.697,41.869z M20.697,46.967c1.247,0,2.319-1.014,2.319-2.297
			c0-1.262-1.043-2.312-2.319-2.312c-1.218,0-2.312,0.992-2.312,2.334C18.385,45.924,19.442,46.967,20.697,46.967z"/>
		<path fill="#FFFFFF" d="M27.423,41.964h0.832l1.962,4.595l1.969-4.595h0.832v5.397h-0.54v-4.807h-0.015l-2.021,4.807h-0.459
			l-2.005-4.807h-0.015v4.807h-0.54V41.964z"/>
		<path fill="#FFFFFF" d="M37.082,41.964h2.954v0.489h-2.414v1.94h2.334v0.489h-2.334v1.991h2.414v0.489h-2.954V41.964z"/>
		<path fill="#FFFFFF" d="M49.003,41.964h2.728v0.489h-2.188v1.955h2.108v0.489h-2.108v2.465h-0.54V41.964z"/>
		<path fill="#FFFFFF" d="M56.981,41.964h0.605l2.319,5.397h-0.59l-0.781-1.816h-2.509l-0.788,1.816h-0.562L56.981,41.964z
			 M56.23,45.057h2.093l-1.036-2.48L56.23,45.057z"/>
		<path fill="#FFFFFF" d="M63.685,45.852c0.029,0.678,0.459,1.116,1.123,1.116c0.569,0,1.087-0.438,1.087-1.072
			c0-0.832-0.839-1.043-1.204-1.153c-0.488-0.146-1.4-0.35-1.4-1.422c0-0.839,0.664-1.452,1.517-1.452
			c0.883,0,1.496,0.678,1.496,1.466h-0.54c0-0.547-0.445-0.978-0.956-0.978c-0.62,0-0.977,0.474-0.977,0.941
			c0,0.656,0.576,0.81,1.284,1.014c1.312,0.35,1.32,1.378,1.32,1.554v0.007c0,0.832-0.671,1.583-1.626,1.583
			c-0.7,0-1.641-0.416-1.663-1.604H63.685z"/>
		<path fill="#FFFFFF" d="M70.167,41.964h0.54v2.378h2.793v-2.378h0.54v5.397h-0.54v-2.531h-2.793v2.531h-0.54V41.964z"/>
		<path fill="#FFFFFF" d="M78.147,41.964h0.54v5.397h-0.54V41.964z"/>
		<path fill="#FFFFFF" d="M85.401,41.869c1.517,0,2.859,1.204,2.859,2.793s-1.349,2.793-2.859,2.793
			c-1.532,0-2.852-1.247-2.852-2.764C82.549,42.992,83.964,41.869,85.401,41.869z M85.401,46.967c1.247,0,2.319-1.014,2.319-2.297
			c0-1.262-1.043-2.312-2.319-2.312c-1.218,0-2.312,0.992-2.312,2.334C83.089,45.924,84.147,46.967,85.401,46.967z"/>
		<path fill="#FFFFFF" d="M92.12,41.964h0.729l3.012,4.479h0.015v-4.479h0.54v5.397h-0.54l-3.202-4.748H92.66v4.748h-0.54V41.964z"
			/>
		<path fill="#FFFFFF" d="M100.669,45.852c0.029,0.678,0.459,1.116,1.123,1.116c0.569,0,1.087-0.438,1.087-1.072
			c0-0.832-0.839-1.043-1.204-1.153c-0.488-0.146-1.4-0.35-1.4-1.422c0-0.839,0.664-1.452,1.517-1.452
			c0.883,0,1.496,0.678,1.496,1.466h-0.54c0-0.547-0.445-0.978-0.956-0.978c-0.62,0-0.977,0.474-0.977,0.941
			c0,0.656,0.576,0.81,1.284,1.014c1.312,0.35,1.32,1.378,1.32,1.554v0.007c0,0.832-0.671,1.583-1.626,1.583
			c-0.7,0-1.641-0.416-1.663-1.604H100.669z"/>
	</g>
</g>
</svg>
