<?xml version="1.0" encoding="utf-8"?>
<!-- Generator: Adobe Illustrator 17.1.0, SVG Export Plug-In . SVG Version: 6.00 Build 0)  -->
<!DOCTYPE svg PUBLIC "-//W3C//DTD SVG 1.1//EN" "http://www.w3.org/Graphics/SVG/1.1/DTD/svg11.dtd">
<svg version="1.1" id="Layer_1" xmlns="http://www.w3.org/2000/svg" xmlns:xlink="http://www.w3.org/1999/xlink" x="0px" y="0px"
	 viewBox="0 0 30 30" enable-background="new 0 0 30 30" xml:space="preserve">
<path fill="#58585A" d="M22.899,21.11c0.234,0.234,0.351,0.519,0.351,0.855c0,0.329-0.12,0.614-0.361,0.855
	c-0.241,0.241-0.526,0.361-0.855,0.361c-0.342,0-0.627-0.12-0.855-0.361l-3.258-3.248c-1.133,0.785-2.397,1.178-3.79,1.178
	c-0.906,0-1.771-0.176-2.598-0.527c-0.826-0.351-1.539-0.826-2.137-1.425c-0.598-0.598-1.073-1.311-1.425-2.137
	c-0.351-0.826-0.527-1.692-0.527-2.598c0-0.905,0.176-1.771,0.527-2.598c0.351-0.826,0.826-1.539,1.425-2.137
	c0.598-0.598,1.311-1.073,2.137-1.425c0.826-0.351,1.692-0.527,2.598-0.527c0.905,0,1.771,0.176,2.598,0.527
	c0.826,0.351,1.539,0.826,2.137,1.425c0.598,0.598,1.073,1.311,1.425,2.137c0.351,0.826,0.527,1.692,0.527,2.598
	c0,1.393-0.393,2.656-1.178,3.79L22.899,21.11L22.899,21.11z M17.139,17.069c0.833-0.833,1.249-1.835,1.249-3.006
	c0-1.171-0.416-2.173-1.249-3.006c-0.833-0.833-1.835-1.249-3.006-1.249c-1.172,0-2.174,0.416-3.006,1.249
	c-0.833,0.833-1.249,1.835-1.249,3.006c0,1.171,0.416,2.173,1.249,3.006c0.833,0.833,1.835,1.249,3.006,1.249
	C15.304,18.318,16.306,17.902,17.139,17.069z"/>
</svg>
