<?xml version="1.0" encoding="utf-8"?>
<!-- Generator: Adobe Illustrator 17.1.0, SVG Export Plug-In . SVG Version: 6.00 Build 0)  -->
<!DOCTYPE svg PUBLIC "-//W3C//DTD SVG 1.1//EN" "http://www.w3.org/Graphics/SVG/1.1/DTD/svg11.dtd">
<svg version="1.1" id="Layer_1" xmlns="http://www.w3.org/2000/svg" xmlns:xlink="http://www.w3.org/1999/xlink" x="0px" y="0px"
	 viewBox="0 0 30 30" enable-background="new 0 0 30 30" xml:space="preserve">
<path fill="#58585A" d="M21.355,11.637c0.635-0.454,1.165-1.003,1.588-1.649c-0.565,0.252-1.175,0.423-1.83,0.514
	c0.686-0.403,1.154-0.993,1.407-1.77c-0.656,0.383-1.331,0.64-2.027,0.771c-0.615-0.665-1.387-0.998-2.314-0.998
	c-0.877,0-1.626,0.31-2.246,0.93c-0.62,0.62-0.93,1.369-0.93,2.246c0,0.293,0.025,0.535,0.076,0.726
	c-1.301-0.07-2.521-0.398-3.66-0.983c-1.14-0.585-2.108-1.366-2.904-2.344c-0.293,0.504-0.439,1.039-0.439,1.603
	c0,1.149,0.459,2.032,1.376,2.647c-0.474-0.01-0.978-0.141-1.513-0.393v0.03c0,0.756,0.252,1.429,0.756,2.019
	c0.504,0.59,1.124,0.956,1.86,1.097c-0.293,0.081-0.55,0.121-0.771,0.121c-0.131,0-0.328-0.02-0.59-0.061
	c0.212,0.635,0.587,1.16,1.127,1.573c0.539,0.414,1.152,0.625,1.838,0.635c-1.17,0.908-2.486,1.361-3.948,1.361
	c-0.262,0-0.514-0.015-0.756-0.045c1.492,0.948,3.116,1.422,4.87,1.422c1.129,0,2.188-0.179,3.176-0.537
	c0.988-0.358,1.835-0.837,2.541-1.437c0.706-0.6,1.313-1.291,1.823-2.072c0.509-0.781,0.887-1.598,1.134-2.45
	c0.247-0.852,0.371-1.702,0.371-2.549C21.37,11.864,21.365,11.727,21.355,11.637L21.355,11.637z"/>
</svg>
